<svg width="20" height="20" viewBox="0 0 20 20" fill="none" xmlns="http://www.w3.org/2000/svg">
<path d="M19.9931 9.98047C19.9931 10.6836 19.4722 11.2344 18.8819 11.2344H17.7708L17.7951 17.4922C17.7951 17.5977 17.7882 17.7031 17.7778 17.8086V18.4375C17.7778 19.3008 17.1563 20 16.3889 20H15.8333C15.7951 20 15.7569 20 15.7188 19.9961C15.6701 20 15.6215 20 15.5729 20H14.4444H13.6111C12.8438 20 12.2222 19.3008 12.2222 18.4375V17.5V15C12.2222 14.3086 11.7257 13.75 11.1111 13.75H8.88889C8.27431 13.75 7.77778 14.3086 7.77778 15V17.5V18.4375C7.77778 19.3008 7.15625 20 6.38889 20H5.55556H4.44792C4.39583 20 4.34375 19.9961 4.29167 19.9922C4.25 19.9961 4.20833 20 4.16667 20H3.61111C2.84375 20 2.22222 19.3008 2.22222 18.4375V14.0625C2.22222 14.0273 2.22222 13.9883 2.22569 13.9531V11.2344H1.11111C0.486111 11.2344 0 10.6875 0 9.98047C0 9.62891 0.104167 9.31641 0.347222 9.04297L9.25 0.3125C9.49306 0.0390625 9.77083 0 10.0139 0C10.2569 0 10.5347 0.078125 10.7431 0.273438L19.6111 9.04297C19.8889 9.31641 20.0278 9.62891 19.9931 9.98047Z" fill="white"/>
</svg>
